<svg width="980" height="560" viewBox="0 0 980 560" fill="none" xmlns="http://www.w3.org/2000/svg">
  <defs>
    <radialGradient id="floorGlow" cx="0" cy="0" r="1" gradientUnits="userSpaceOnUse" gradientTransform="translate(515 386) rotate(90) scale(160 380)">
      <stop stop-color="#9EA8FF" stop-opacity="0.42"/>
      <stop offset="0.48" stop-color="#746BFF" stop-opacity="0.18"/>
      <stop offset="1" stop-color="#070A10" stop-opacity="0"/>
    </radialGradient>
    <linearGradient id="case" x1="275" y1="124" x2="678" y2="426" gradientUnits="userSpaceOnUse">
      <stop stop-color="#30333E"/>
      <stop offset="0.45" stop-color="#11141B"/>
      <stop offset="1" stop-color="#05070B"/>
    </linearGradient>
    <linearGradient id="edge" x1="0" y1="0" x2="1" y2="1">
      <stop stop-color="#5B6072"/>
      <stop offset="1" stop-color="#0B0D13"/>
    </linearGradient>
    <filter id="softShadow" x="80" y="72" width="820" height="420" filterUnits="userSpaceOnUse" color-interpolation-filters="sRGB">
      <feDropShadow dx="0" dy="28" stdDeviation="28" flood-color="#000000" flood-opacity="0.72"/>
    </filter>
    <filter id="purpleGlow" x="-80" y="-80" width="160" height="160" filterUnits="userSpaceOnUse" color-interpolation-filters="sRGB">
      <feGaussianBlur stdDeviation="8" result="blur"/>
      <feMerge>
        <feMergeNode in="blur"/>
        <feMergeNode in="SourceGraphic"/>
      </feMerge>
    </filter>
    <pattern id="microLines" width="18" height="18" patternUnits="userSpaceOnUse" patternTransform="rotate(35)">
      <path d="M0 9H18" stroke="#6E748B" stroke-opacity="0.14" stroke-width="1"/>
    </pattern>
  </defs>

  <rect width="980" height="560" fill="transparent"/>
  <ellipse cx="510" cy="392" rx="392" ry="106" fill="url(#floorGlow)"/>
  <ellipse cx="510" cy="392" rx="310" ry="82" stroke="#8F8AFF" stroke-opacity="0.38"/>
  <ellipse cx="510" cy="392" rx="242" ry="64" stroke="#A7AEFF" stroke-opacity="0.25"/>
  <ellipse cx="510" cy="392" rx="166" ry="44" stroke="#C4C9FF" stroke-opacity="0.16"/>

  <g filter="url(#softShadow)">
    <path d="M603 177C612 150 638 135 667 144L740 167C768 176 784 205 774 233L719 395C710 421 681 435 654 425L584 398C560 389 548 363 557 339L603 177Z" fill="url(#case)" stroke="url(#edge)" stroke-width="3"/>
    <path d="M622 177L748 218L704 360L578 319L622 177Z" fill="url(#microLines)" opacity="0.62"/>
    <circle cx="637" cy="222" r="14" fill="#151823" stroke="#515775" stroke-width="2"/>
    <circle cx="637" cy="222" r="7" fill="#A3A9FF" filter="url(#purpleGlow)"/>
    <circle cx="596" cy="316" r="13" fill="#151823" stroke="#515775" stroke-width="2"/>
    <circle cx="596" cy="316" r="6" fill="#938BFF" filter="url(#purpleGlow)"/>
    <circle cx="706" cy="342" r="12" fill="#151823" stroke="#515775" stroke-width="2"/>
    <circle cx="706" cy="342" r="5.5" fill="#C7CDFF" filter="url(#purpleGlow)"/>

    <path d="M418 200C428 171 457 155 487 164L566 188C596 197 612 229 601 258L547 412C538 438 510 452 483 442L409 416C383 407 370 379 379 353L418 200Z" fill="url(#case)" stroke="url(#edge)" stroke-width="3"/>
    <path d="M436 201L574 247L527 382L391 337L436 201Z" fill="url(#microLines)" opacity="0.56"/>
    <circle cx="461" cy="240" r="14" fill="#151823" stroke="#515775" stroke-width="2"/>
    <circle cx="461" cy="240" r="7" fill="#A3A9FF" filter="url(#purpleGlow)"/>
    <circle cx="418" cy="343" r="13" fill="#151823" stroke="#515775" stroke-width="2"/>
    <circle cx="418" cy="343" r="6" fill="#938BFF" filter="url(#purpleGlow)"/>
    <circle cx="533" cy="367" r="12" fill="#151823" stroke="#515775" stroke-width="2"/>
    <circle cx="533" cy="367" r="5.5" fill="#C7CDFF" filter="url(#purpleGlow)"/>

    <path d="M283 252C292 223 322 206 352 215L416 234C444 243 459 273 449 301L414 402C405 427 378 441 352 433L285 412C260 404 246 377 254 352L283 252Z" fill="url(#case)" stroke="url(#edge)" stroke-width="3"/>
    <path d="M301 252L424 291L394 382L271 343L301 252Z" fill="url(#microLines)" opacity="0.48"/>
    <circle cx="330" cy="282" r="13" fill="#151823" stroke="#515775" stroke-width="2"/>
    <circle cx="330" cy="282" r="6" fill="#A3A9FF" filter="url(#purpleGlow)"/>
    <circle cx="287" cy="358" r="11" fill="#151823" stroke="#515775" stroke-width="2"/>
    <circle cx="287" cy="358" r="5.5" fill="#938BFF" filter="url(#purpleGlow)"/>
    <circle cx="384" cy="375" r="11" fill="#151823" stroke="#515775" stroke-width="2"/>
    <circle cx="384" cy="375" r="5" fill="#C7CDFF" filter="url(#purpleGlow)"/>

    <path d="M699 150C710 118 742 99 775 109L835 127C862 136 878 164 868 191L834 287C825 313 797 326 771 316L711 293C688 284 676 258 684 234L699 150Z" fill="url(#case)" stroke="url(#edge)" stroke-width="3"/>
    <path d="M715 148L846 189L815 279L686 238L715 148Z" fill="url(#microLines)" opacity="0.52"/>
    <circle cx="750" cy="173" r="12" fill="#151823" stroke="#515775" stroke-width="2"/>
    <circle cx="750" cy="173" r="5.5" fill="#A3A9FF" filter="url(#purpleGlow)"/>
  </g>

  <path d="M730 392C792 356 861 349 930 376" stroke="#1A1D28" stroke-width="32" stroke-linecap="round"/>
  <path d="M731 390C791 358 860 352 926 376" stroke="#2B2F42" stroke-width="18" stroke-linecap="round"/>
  <path d="M742 388C795 366 856 361 914 379" stroke="#090B10" stroke-width="8" stroke-linecap="round"/>
</svg>
